<mxfile host="app.diagrams.net" modified="2020-03-27T03:24:34.319Z" agent="Mozilla/5.0 (Macintosh; Intel Mac OS X 10_14_6) AppleWebKit/537.36 (KHTML, like Gecko) Chrome/80.0.3987.149 Safari/537.36" etag="EvIbkQGLIFPdHNlG1Le5" version="12.8.9" type="github">
  <diagram id="tU7GGXDOQl9qi68rUjp4" name="Page-1">
    <mxGraphModel dx="1100" dy="736" grid="1" gridSize="10" guides="1" tooltips="1" connect="1" arrows="1" fold="1" page="1" pageScale="1" pageWidth="827" pageHeight="1169" math="0" shadow="0">
      <root>
        <mxCell id="0" />
        <mxCell id="1" parent="0" />
        <mxCell id="1JGGzkMVSnnj-WmSW3Wc-6" style="edgeStyle=orthogonalEdgeStyle;rounded=0;orthogonalLoop=1;jettySize=auto;html=1;exitX=1;exitY=0.5;exitDx=0;exitDy=0;entryX=0;entryY=0.5;entryDx=0;entryDy=0;" edge="1" parent="1" source="1JGGzkMVSnnj-WmSW3Wc-1" target="1JGGzkMVSnnj-WmSW3Wc-2">
          <mxGeometry relative="1" as="geometry" />
        </mxCell>
        <mxCell id="1JGGzkMVSnnj-WmSW3Wc-1" value="param check" style="rounded=1;whiteSpace=wrap;html=1;" vertex="1" parent="1">
          <mxGeometry x="70" y="190" width="120" height="60" as="geometry" />
        </mxCell>
        <mxCell id="1JGGzkMVSnnj-WmSW3Wc-7" style="edgeStyle=orthogonalEdgeStyle;rounded=0;orthogonalLoop=1;jettySize=auto;html=1;exitX=1;exitY=0.5;exitDx=0;exitDy=0;entryX=0;entryY=0.5;entryDx=0;entryDy=0;" edge="1" parent="1" source="1JGGzkMVSnnj-WmSW3Wc-2" target="1JGGzkMVSnnj-WmSW3Wc-3">
          <mxGeometry relative="1" as="geometry" />
        </mxCell>
        <mxCell id="1JGGzkMVSnnj-WmSW3Wc-11" value="" style="edgeStyle=orthogonalEdgeStyle;rounded=0;orthogonalLoop=1;jettySize=auto;html=1;" edge="1" parent="1" source="1JGGzkMVSnnj-WmSW3Wc-2" target="1JGGzkMVSnnj-WmSW3Wc-10">
          <mxGeometry relative="1" as="geometry" />
        </mxCell>
        <mxCell id="1JGGzkMVSnnj-WmSW3Wc-2" value="wrapper" style="rounded=1;whiteSpace=wrap;html=1;" vertex="1" parent="1">
          <mxGeometry x="353.5" y="190" width="120" height="60" as="geometry" />
        </mxCell>
        <mxCell id="1JGGzkMVSnnj-WmSW3Wc-29" style="edgeStyle=orthogonalEdgeStyle;rounded=0;orthogonalLoop=1;jettySize=auto;html=1;exitX=0.5;exitY=1;exitDx=0;exitDy=0;entryX=0.5;entryY=0;entryDx=0;entryDy=0;" edge="1" parent="1" source="1JGGzkMVSnnj-WmSW3Wc-8" target="1JGGzkMVSnnj-WmSW3Wc-16">
          <mxGeometry relative="1" as="geometry" />
        </mxCell>
        <mxCell id="1JGGzkMVSnnj-WmSW3Wc-8" value="insert&amp;amp;update" style="rounded=1;whiteSpace=wrap;html=1;" vertex="1" parent="1">
          <mxGeometry x="190" y="420" width="120" height="60" as="geometry" />
        </mxCell>
        <mxCell id="1JGGzkMVSnnj-WmSW3Wc-3" value="callback" style="rounded=1;whiteSpace=wrap;html=1;" vertex="1" parent="1">
          <mxGeometry x="630" y="190" width="120" height="60" as="geometry" />
        </mxCell>
        <mxCell id="1JGGzkMVSnnj-WmSW3Wc-13" style="edgeStyle=orthogonalEdgeStyle;rounded=0;orthogonalLoop=1;jettySize=auto;html=1;exitX=0;exitY=0.5;exitDx=0;exitDy=0;entryX=0.5;entryY=0;entryDx=0;entryDy=0;" edge="1" parent="1" source="1JGGzkMVSnnj-WmSW3Wc-10" target="1JGGzkMVSnnj-WmSW3Wc-8">
          <mxGeometry relative="1" as="geometry" />
        </mxCell>
        <mxCell id="1JGGzkMVSnnj-WmSW3Wc-14" style="edgeStyle=orthogonalEdgeStyle;rounded=0;orthogonalLoop=1;jettySize=auto;html=1;exitX=1;exitY=0.5;exitDx=0;exitDy=0;entryX=0.5;entryY=0;entryDx=0;entryDy=0;" edge="1" parent="1" source="1JGGzkMVSnnj-WmSW3Wc-10" target="1JGGzkMVSnnj-WmSW3Wc-12">
          <mxGeometry relative="1" as="geometry" />
        </mxCell>
        <mxCell id="1JGGzkMVSnnj-WmSW3Wc-10" value="op" style="rhombus;whiteSpace=wrap;html=1;" vertex="1" parent="1">
          <mxGeometry x="374" y="280" width="80" height="80" as="geometry" />
        </mxCell>
        <mxCell id="1JGGzkMVSnnj-WmSW3Wc-32" style="edgeStyle=orthogonalEdgeStyle;rounded=0;orthogonalLoop=1;jettySize=auto;html=1;exitX=0.5;exitY=1;exitDx=0;exitDy=0;entryX=0.5;entryY=0;entryDx=0;entryDy=0;" edge="1" parent="1" source="1JGGzkMVSnnj-WmSW3Wc-12" target="1JGGzkMVSnnj-WmSW3Wc-16">
          <mxGeometry relative="1" as="geometry" />
        </mxCell>
        <mxCell id="1JGGzkMVSnnj-WmSW3Wc-12" value="delete" style="rounded=1;whiteSpace=wrap;html=1;" vertex="1" parent="1">
          <mxGeometry x="520" y="420" width="120" height="60" as="geometry" />
        </mxCell>
        <mxCell id="1JGGzkMVSnnj-WmSW3Wc-17" style="edgeStyle=orthogonalEdgeStyle;rounded=0;orthogonalLoop=1;jettySize=auto;html=1;exitX=0;exitY=0.5;exitDx=0;exitDy=0;" edge="1" parent="1" source="1JGGzkMVSnnj-WmSW3Wc-16" target="1JGGzkMVSnnj-WmSW3Wc-18">
          <mxGeometry relative="1" as="geometry">
            <mxPoint x="240" y="760" as="targetPoint" />
          </mxGeometry>
        </mxCell>
        <mxCell id="1JGGzkMVSnnj-WmSW3Wc-20" style="edgeStyle=orthogonalEdgeStyle;rounded=0;orthogonalLoop=1;jettySize=auto;html=1;exitX=1;exitY=0.5;exitDx=0;exitDy=0;entryX=0.5;entryY=0;entryDx=0;entryDy=0;" edge="1" parent="1" source="1JGGzkMVSnnj-WmSW3Wc-16" target="1JGGzkMVSnnj-WmSW3Wc-19">
          <mxGeometry relative="1" as="geometry" />
        </mxCell>
        <mxCell id="1JGGzkMVSnnj-WmSW3Wc-16" value="isArn" style="rhombus;whiteSpace=wrap;html=1;" vertex="1" parent="1">
          <mxGeometry x="370" y="560" width="80" height="80" as="geometry" />
        </mxCell>
        <mxCell id="1JGGzkMVSnnj-WmSW3Wc-22" value="" style="edgeStyle=orthogonalEdgeStyle;rounded=0;orthogonalLoop=1;jettySize=auto;html=1;" edge="1" parent="1" source="1JGGzkMVSnnj-WmSW3Wc-18" target="1JGGzkMVSnnj-WmSW3Wc-21">
          <mxGeometry relative="1" as="geometry" />
        </mxCell>
        <mxCell id="1JGGzkMVSnnj-WmSW3Wc-18" value="拼装source实体" style="rounded=1;whiteSpace=wrap;html=1;" vertex="1" parent="1">
          <mxGeometry x="250" y="670" width="120" height="60" as="geometry" />
        </mxCell>
        <mxCell id="1JGGzkMVSnnj-WmSW3Wc-24" value="" style="edgeStyle=orthogonalEdgeStyle;rounded=0;orthogonalLoop=1;jettySize=auto;html=1;" edge="1" parent="1" source="1JGGzkMVSnnj-WmSW3Wc-21" target="1JGGzkMVSnnj-WmSW3Wc-23">
          <mxGeometry relative="1" as="geometry" />
        </mxCell>
        <mxCell id="1JGGzkMVSnnj-WmSW3Wc-21" value="构建关系" style="rounded=1;whiteSpace=wrap;html=1;" vertex="1" parent="1">
          <mxGeometry x="250" y="810" width="120" height="60" as="geometry" />
        </mxCell>
        <mxCell id="1JGGzkMVSnnj-WmSW3Wc-23" value="构建需删除的关系" style="rounded=1;whiteSpace=wrap;html=1;" vertex="1" parent="1">
          <mxGeometry x="250" y="950" width="120" height="60" as="geometry" />
        </mxCell>
        <mxCell id="1JGGzkMVSnnj-WmSW3Wc-26" value="" style="edgeStyle=orthogonalEdgeStyle;rounded=0;orthogonalLoop=1;jettySize=auto;html=1;" edge="1" parent="1" source="1JGGzkMVSnnj-WmSW3Wc-19" target="1JGGzkMVSnnj-WmSW3Wc-25">
          <mxGeometry relative="1" as="geometry" />
        </mxCell>
        <mxCell id="1JGGzkMVSnnj-WmSW3Wc-19" value="查询lindorm" style="rounded=1;whiteSpace=wrap;html=1;" vertex="1" parent="1">
          <mxGeometry x="440" y="670" width="120" height="60" as="geometry" />
        </mxCell>
        <mxCell id="1JGGzkMVSnnj-WmSW3Wc-28" value="" style="edgeStyle=orthogonalEdgeStyle;rounded=0;orthogonalLoop=1;jettySize=auto;html=1;" edge="1" parent="1" source="1JGGzkMVSnnj-WmSW3Wc-25" target="1JGGzkMVSnnj-WmSW3Wc-27">
          <mxGeometry relative="1" as="geometry" />
        </mxCell>
        <mxCell id="1JGGzkMVSnnj-WmSW3Wc-25" value="构建关系" style="rounded=1;whiteSpace=wrap;html=1;" vertex="1" parent="1">
          <mxGeometry x="440" y="810" width="120" height="60" as="geometry" />
        </mxCell>
        <mxCell id="1JGGzkMVSnnj-WmSW3Wc-27" value="构建需删除的关系" style="rounded=1;whiteSpace=wrap;html=1;" vertex="1" parent="1">
          <mxGeometry x="440" y="950" width="120" height="60" as="geometry" />
        </mxCell>
      </root>
    </mxGraphModel>
  </diagram>
</mxfile>
